<svg width="143" height="19" viewBox="0 0 143 19" fill="none" xmlns="http://www.w3.org/2000/svg">
<path d="M4.064 18H0.92V1.248H7.28C8.912 1.248 10.16 1.712 11.024 2.64C11.888 3.568 12.32 4.832 12.32 6.432C12.32 7.664 12.032 8.704 11.456 9.552C10.896 10.384 10.088 10.912 9.032 11.136L12.608 18H9.152L5.96 11.496H4.064V18ZM6.632 9.048C7.48 9.048 8.088 8.88 8.456 8.544C8.824 8.192 9.008 7.64 9.008 6.888V5.976C9.008 5.224 8.824 4.68 8.456 4.344C8.088 3.992 7.48 3.816 6.632 3.816H4.064V9.048H6.632ZM14.9026 18V1.248H25.4866V3.84H18.0466V8.208H25.2226V10.8H18.0466V15.408H25.4866V18H14.9026ZM31.8853 18H28.7413V1.248H35.1013C36.7333 1.248 37.9813 1.712 38.8453 2.64C39.7093 3.568 40.1413 4.832 40.1413 6.432C40.1413 7.664 39.8533 8.704 39.2773 9.552C38.7173 10.384 37.9093 10.912 36.8533 11.136L40.4293 18H36.9733L33.7813 11.496H31.8853V18ZM34.4533 9.048C35.3013 9.048 35.9093 8.88 36.2773 8.544C36.6453 8.192 36.8293 7.64 36.8293 6.888V5.976C36.8293 5.224 36.6453 4.68 36.2773 4.344C35.9093 3.992 35.3013 3.816 34.4533 3.816H31.8853V9.048H34.4533ZM51.5079 18L50.3319 13.752H45.3639L44.2119 18H41.0439L45.7479 1.248H50.1159L54.8439 18H51.5079ZM47.9559 4.344H47.7639L45.9159 11.184H49.8039L47.9559 4.344ZM63.4025 3.84V18H60.2825V3.84H55.2425V1.248H68.4425V3.84H63.4025ZM70.5451 18V1.248H81.1291V3.84H73.6891V8.208H80.8651V10.8H73.6891V15.408H81.1291V18H70.5451ZM89.6638 18.264C88.8318 18.264 88.2398 18.088 87.8878 17.736C87.5358 17.384 87.3598 16.952 87.3598 16.44V15.72C87.3598 15.208 87.5358 14.776 87.8878 14.424C88.2398 14.072 88.8318 13.896 89.6638 13.896C90.4958 13.896 91.0878 14.072 91.4398 14.424C91.7918 14.776 91.9678 15.208 91.9678 15.72V16.44C91.9678 16.952 91.7918 17.384 91.4398 17.736C91.0878 18.088 90.4958 18.264 89.6638 18.264ZM101.438 18H98.2944V1.248H104.654C106.286 1.248 107.534 1.712 108.398 2.64C109.262 3.568 109.694 4.832 109.694 6.432C109.694 7.664 109.406 8.704 108.83 9.552C108.27 10.384 107.462 10.912 106.406 11.136L109.982 18H106.526L103.334 11.496H101.438V18ZM104.006 9.048C104.854 9.048 105.462 8.88 105.83 8.544C106.198 8.192 106.382 7.64 106.382 6.888V5.976C106.382 5.224 106.198 4.68 105.83 4.344C105.462 3.992 104.854 3.816 104.006 3.816H101.438V9.048H104.006ZM114.917 1.248V11.688C114.917 12.312 114.933 12.872 114.965 13.368C115.013 13.864 115.117 14.288 115.277 14.64C115.453 14.976 115.709 15.24 116.045 15.432C116.397 15.624 116.877 15.72 117.485 15.72C118.093 15.72 118.565 15.624 118.901 15.432C119.253 15.24 119.509 14.976 119.669 14.64C119.845 14.288 119.949 13.864 119.981 13.368C120.029 12.872 120.053 12.312 120.053 11.688V1.248H123.197V11.208C123.197 12.392 123.125 13.424 122.981 14.304C122.837 15.184 122.557 15.92 122.141 16.512C121.725 17.104 121.141 17.552 120.389 17.856C119.653 18.144 118.685 18.288 117.485 18.288C116.285 18.288 115.309 18.144 114.557 17.856C113.821 17.552 113.245 17.104 112.829 16.512C112.413 15.92 112.133 15.184 111.989 14.304C111.845 13.424 111.773 12.392 111.773 11.208V1.248H114.917ZM138.111 9.696C137.503 9.696 136.927 9.584 136.383 9.36C135.855 9.136 135.391 8.832 134.991 8.448C134.591 8.064 134.279 7.608 134.055 7.08C133.831 6.536 133.719 5.952 133.719 5.328C133.719 4.704 133.831 4.128 134.055 3.6C134.279 3.056 134.591 2.592 134.991 2.208C135.391 1.824 135.855 1.52 136.383 1.296C136.927 1.072 137.503 0.959999 138.111 0.959999C138.719 0.959999 139.287 1.072 139.815 1.296C140.359 1.52 140.823 1.824 141.207 2.208C141.607 2.592 141.919 3.056 142.143 3.6C142.383 4.128 142.503 4.704 142.503 5.328C142.503 5.952 142.383 6.536 142.143 7.08C141.919 7.608 141.607 8.064 141.207 8.448C140.823 8.832 140.359 9.136 139.815 9.36C139.287 9.584 138.719 9.696 138.111 9.696ZM138.111 8.712C138.575 8.712 138.999 8.64 139.383 8.496C139.783 8.336 140.127 8.12 140.415 7.848C140.703 7.576 140.927 7.248 141.087 6.864C141.263 6.48 141.351 6.048 141.351 5.568V5.088C141.351 4.608 141.263 4.176 141.087 3.792C140.927 3.408 140.703 3.08 140.415 2.808C140.127 2.536 139.783 2.328 139.383 2.184C138.999 2.024 138.575 1.944 138.111 1.944C137.647 1.944 137.215 2.024 136.815 2.184C136.431 2.328 136.095 2.536 135.807 2.808C135.519 3.08 135.287 3.408 135.111 3.792C134.951 4.176 134.871 4.608 134.871 5.088V5.568C134.871 6.048 134.951 6.48 135.111 6.864C135.287 7.248 135.519 7.576 135.807 7.848C136.095 8.12 136.431 8.336 136.815 8.496C137.215 8.64 137.647 8.712 138.111 8.712ZM137.511 7.536H136.311V3.096H138.471C139.015 3.096 139.415 3.232 139.671 3.504C139.943 3.776 140.079 4.128 140.079 4.56C140.079 5.2 139.799 5.648 139.239 5.904L140.223 7.536H138.903L138.087 6.12H137.511V7.536ZM138.183 5.232C138.599 5.232 138.807 5.064 138.807 4.728V4.536C138.807 4.2 138.599 4.032 138.183 4.032H137.511V5.232H138.183Z" fill="#0C1B66"/>
</svg>
